<?xml version="1.0" encoding="utf-8"?>
<!-- Generator: Adobe Illustrator 25.2.0, SVG Export Plug-In . SVG Version: 6.00 Build 0)  -->
<svg version="1.1" id="Layer_1" xmlns="http://www.w3.org/2000/svg" xmlns:xlink="http://www.w3.org/1999/xlink" x="0px" y="0px"
	 viewBox="0 0 2000 2000" style="enable-background:new 0 0 2000 2000;" xml:space="preserve">
<style type="text/css">
	.st0{display:none;fill:#FFFFFF;stroke:#000000;stroke-miterlimit:10;}
	.st1{display:none;fill:#009999;}
	.st2{fill:#009999;}
	.st3{fill:#FFFFFF;}
</style>

<g>
	<g>
		<path class="st3" d="M498.18,1266.58v-88.39c0-6.77,1.63-12.89,4.9-18.35c3.27-5.46,7.66-9.83,13.19-13.1
			c5.53-3.27,11.61-4.9,18.27-4.9h45.09v22.46h-42.24c-3.8,0-7.04,1.37-9.71,4.1c-2.67,2.74-4.01,6-4.01,9.8v20.14h49.9v22.45h-49.9
			v45.8H498.18z"/>
		<path class="st3" d="M654.64,1266.58c-7.37,0-13.84-1.69-19.43-5.08s-9.92-7.9-13.01-13.54c-3.09-5.64-4.63-11.85-4.63-18.62
			v-87.5h25.48v90.53c0,3.21,1.13,5.97,3.39,8.29c2.26,2.32,4.99,3.48,8.2,3.48h32.97v22.45H654.64z"/>
		<path class="st3" d="M783.31,1271.21c-9.99,0-18.98-1.69-27-5.08s-14.88-8.05-20.58-13.99c-5.7-5.94-10.1-12.83-13.19-20.67
			c-3.09-7.84-4.63-16.22-4.63-25.13c0-8.91,1.55-17.26,4.63-25.04s7.49-14.64,13.19-20.58c5.7-5.94,12.56-10.57,20.58-13.9
			c8.02-3.33,17.02-4.99,27-4.99c9.98,0,18.97,1.67,26.99,4.99c8.02,3.33,14.88,7.96,20.58,13.9c5.7,5.94,10.1,12.8,13.19,20.58
			c3.09,7.78,4.63,16.13,4.63,25.04c0,8.91-1.55,17.28-4.63,25.13c-3.09,7.84-7.49,14.73-13.19,20.67
			c-5.7,5.94-12.56,10.6-20.58,13.99C802.28,1269.52,793.29,1271.21,783.31,1271.21z M783.31,1248.58c5.7,0,10.99-1.04,15.85-3.12
			c4.87-2.07,9.12-5.05,12.75-8.91c3.62-3.86,6.41-8.35,8.37-13.45c1.97-5.11,2.94-10.69,2.94-16.75c0-6.06-0.98-11.64-2.94-16.75
			c-1.96-5.11-4.75-9.56-8.37-13.36c-3.62-3.8-7.87-6.74-12.75-8.82c-4.87-2.07-10.16-3.12-15.85-3.12c-5.7,0-10.99,1.04-15.86,3.12
			c-4.87,2.08-9.12,5.02-12.75,8.82c-3.62,3.8-6.41,8.26-8.37,13.36c-1.97,5.11-2.94,10.69-2.94,16.75c0,6.06,0.98,11.64,2.94,16.75
			c1.96,5.11,4.75,9.6,8.37,13.45c3.62,3.86,7.87,6.83,12.75,8.91C772.31,1247.54,777.6,1248.58,783.31,1248.58z"/>
		<path class="st3" d="M923.2,1270.68c-7.37,0-13.84-1.69-19.43-5.08s-9.92-7.9-13.01-13.54c-3.09-5.64-4.63-11.85-4.63-18.62
			v-89.64h25.48v92.67c0,2.14,0.54,4.1,1.61,5.88c1.07,1.78,2.46,3.21,4.18,4.28c1.73,1.07,3.66,1.6,5.8,1.6s4.1-0.53,5.88-1.6
			c1.78-1.07,3.21-2.5,4.28-4.28c1.07-1.78,1.6-3.74,1.6-5.88v-57.38c0-7.25,1.61-13.66,4.81-19.25c3.21-5.58,7.63-9.98,13.28-13.19
			c5.64-3.21,11.97-4.81,18.98-4.81c7.12,0,13.48,1.6,19.07,4.81c5.58,3.21,10,7.6,13.28,13.19c3.27,5.59,4.9,12,4.9,19.25v57.38
			c0,2.14,0.53,4.1,1.6,5.88c1.07,1.78,2.5,3.21,4.28,4.28c1.78,1.07,3.74,1.6,5.88,1.6c2.14,0,4.1-0.53,5.88-1.6
			c1.79-1.07,3.18-2.5,4.19-4.28c1.01-1.78,1.51-3.74,1.51-5.88v-92.67h25.49v89.64c0,6.77-1.55,12.98-4.63,18.62
			c-3.09,5.64-7.4,10.16-12.92,13.54c-5.52,3.39-12.03,5.08-19.52,5.08c-7.36,0-13.87-1.69-19.51-5.08s-10.01-7.9-13.1-13.54
			c-3.09-5.64-4.63-11.85-4.63-18.62v-57.38c0-2.14-0.53-4.1-1.6-5.88c-1.07-1.78-2.5-3.21-4.28-4.28c-1.78-1.07-3.74-1.6-5.88-1.6
			s-4.08,0.53-5.8,1.6s-3.11,2.5-4.19,4.28c-1.07,1.78-1.6,3.74-1.6,5.88v57.38c0,6.77-1.55,12.98-4.63,18.62
			c-3.09,5.64-7.43,10.16-13.01,13.54S930.68,1270.68,923.2,1270.68z"/>
		<path class="st3" d="M1102.65,1266.58v-124.75h42.06c13.3,0,24.83,2.68,34.57,8.02c9.74,5.35,17.31,12.71,22.73,22.1
			c5.4,9.39,8.11,20.14,8.11,32.26c0,12.12-2.7,22.87-8.11,32.26c-5.41,9.39-12.99,16.75-22.73,22.1
			c-9.74,5.35-21.26,8.02-34.57,8.02H1102.65z M1128.13,1244.13h16.58c7.72,0,14.58-1.6,20.58-4.81c6-3.21,10.72-7.81,14.17-13.81
			c3.45-6,5.17-13.1,5.17-21.3c0-8.32-1.73-15.44-5.17-21.38c-3.45-5.94-8.17-10.51-14.17-13.72c-6-3.21-12.86-4.81-20.58-4.81
			h-16.58V1244.13z"/>
		<path class="st3" d="M1302.24,1271.21c-9.98,0-18.98-1.69-27-5.08s-14.88-8.05-20.58-13.99c-5.7-5.94-10.1-12.83-13.19-20.67
			c-3.09-7.84-4.63-16.22-4.63-25.13c0-8.91,1.55-17.26,4.63-25.04s7.49-14.64,13.19-20.58c5.7-5.94,12.56-10.57,20.58-13.9
			c8.02-3.33,17.02-4.99,27-4.99c9.98,0,18.97,1.67,26.99,4.99c8.02,3.33,14.88,7.96,20.58,13.9c5.7,5.94,10.1,12.8,13.19,20.58
			c3.09,7.78,4.63,16.13,4.63,25.04c0,8.91-1.55,17.28-4.63,25.13c-3.09,7.84-7.49,14.73-13.19,20.67
			c-5.7,5.94-12.56,10.6-20.58,13.99S1312.22,1271.21,1302.24,1271.21z M1302.24,1248.58c5.7,0,10.99-1.04,15.85-3.12
			c4.87-2.07,9.12-5.05,12.75-8.91c3.62-3.86,6.41-8.35,8.37-13.45c1.97-5.11,2.94-10.69,2.94-16.75c0-6.06-0.98-11.64-2.94-16.75
			c-1.96-5.11-4.75-9.56-8.37-13.36c-3.62-3.8-7.87-6.74-12.75-8.82c-4.87-2.07-10.16-3.12-15.85-3.12c-5.7,0-10.99,1.04-15.86,3.12
			c-4.87,2.08-9.12,5.02-12.75,8.82c-3.62,3.8-6.41,8.26-8.37,13.36c-1.97,5.11-2.94,10.69-2.94,16.75c0,6.06,0.98,11.64,2.94,16.75
			c1.96,5.11,4.75,9.6,8.37,13.45c3.62,3.86,7.87,6.83,12.75,8.91C1291.25,1247.54,1296.54,1248.58,1302.24,1248.58z"/>
		<path class="st3" d="M1476.34,1302.76v-36.18h-18c-9.75,0-18.54-1.63-26.38-4.9c-7.84-3.27-14.55-7.75-20.14-13.46
			c-5.58-5.7-9.89-12.32-12.92-19.87c-3.03-7.55-4.55-15.59-4.55-24.15s1.51-16.6,4.55-24.15c3.03-7.55,7.34-14.17,12.92-19.87
			s12.3-10.18,20.14-13.45c7.84-3.27,16.63-4.9,26.38-4.9h39.2v22.46h-38.67c-5.7,0-10.93,1.01-15.68,3.03
			c-4.75,2.02-8.88,4.84-12.38,8.46c-3.51,3.63-6.21,7.84-8.11,12.65c-1.9,4.81-2.85,10.07-2.85,15.77c0,7.6,1.69,14.41,5.08,20.4
			c3.39,6,8.02,10.76,13.9,14.26c5.88,3.51,12.56,5.26,20.04,5.26h17.47v-27.27h-21.92v-22.45h47.4v108.35H1476.34z"/>
	</g>
	<g>
		<path class="st3" d="M1042.33,983.91c-26.23-1.87-44.55-15.38-60.72-27.3c-16.87-12.44-33.5-24.24-51.45-31.94
			c-22.78-9.78-47.99-14.94-72.9-14.94c-29.72,0-59.29,7.25-85.49,20.98l-12.95-24.73c30.18-15.81,64.23-24.17,98.44-24.17
			c28.67,0,57.68,5.95,83.91,17.21c20.68,8.87,38.77,21.68,57.01,35.13c16.9,12.46,29.24,20.72,46.14,21.93L1042.33,983.91z"/>
		<g>
			<path class="st3" d="M1049.89,1095.8c-53.3,0-103.91-19.48-143.35-55.39l18.79-20.64c36.18,32.93,83.17,49.93,132.36,47.96
				c52.39-2.2,101.59-27.21,134.97-68.61l21.73,17.52c-38.42,47.65-95.12,76.44-155.55,78.98
				C1055.85,1095.74,1052.87,1095.8,1049.89,1095.8z"/>
		</g>
		<path class="st3" d="M1108.37,853.5c-6.72-42.53-43.64-75.16-88.03-75.16h-42.97v-81.09l-16.06,2.44
			c-1.11,0.17-110.02,18.23-138.06,141.06c9.7-1.3,19.47-2.03,29.27-2.22c19.61-71.71,70.64-98,96.94-106.98v74.7h70.88
			c33.75,0,61.2,27.46,61.2,61.21v13.96h97.27c-0.16,15.94-3.13,31.56-8.82,46.45c-18.72,48.94-63.74,81.96-114.67,84.1
			c-34.21,1.46-67.12-10.44-92.42-33.47c-28.95-26.35-66.47-40.85-105.63-40.85c-56.94,0-109.53,30.94-137.25,80.73l24.39,13.57
			c22.79-40.95,66.04-66.39,112.86-66.39c32.21,0,63.05,11.93,86.84,33.59c29.11,26.49,66.38,40.86,105.61,40.86
			c2.25,0,4.51-0.05,6.78-0.14c62.07-2.61,116.85-42.65,139.56-102.02c7.08-18.5,10.67-37.94,10.67-57.78V853.5H1108.37z"/>
		<g>
			<circle class="st3" cx="1025.81" cy="853.78" r="17.51"/>
		</g>
		<g>
			<circle class="st3" cx="1166.47" cy="890.44" r="27.91"/>
		</g>
	</g>
</g>
<g>
	<g>
		<path d="M345.59,1525.5c3.22,0,3.22-5,0-5C342.37,1520.5,342.37,1525.5,345.59,1525.5L345.59,1525.5z"/>
	</g>
</g>
</svg>
